<mxfile host="app.diagrams.net" modified="2024-03-16T18:02:09.118Z" agent="Mozilla/5.0 (Macintosh; Intel Mac OS X 10_15_7) AppleWebKit/605.1.15 (KHTML, like Gecko) Version/17.4 Safari/605.1.15" etag="vQIUe-fr9k_Wox7ocI-_" version="24.0.7" type="github">
  <diagram name="Strona-1" id="4_b_r0FPneEdvxQF47Fr">
    <mxGraphModel dx="921" dy="645" grid="1" gridSize="10" guides="1" tooltips="1" connect="1" arrows="1" fold="1" page="1" pageScale="1" pageWidth="827" pageHeight="1169" math="0" shadow="0">
      <root>
        <mxCell id="0" />
        <mxCell id="1" parent="0" />
        <mxCell id="xjDF9pEwEW9eb6jhkBWc-3" value="&lt;font style=&quot;font-size: 8px;&quot;&gt;UD &quot;System&amp;nbsp;&lt;span style=&quot;caret-color: rgb(100, 108, 154); font-family: Poppins, sans-serif; background-color: rgb(255, 255, 255);&quot;&gt;gromadzenia, ewidencjonowania, przechowywania i udostępniania dokumentów archiwalnych&lt;/span&gt;&lt;span style=&quot;caret-color: rgb(100, 108, 154); color: rgb(100, 108, 154); font-family: Poppins, sans-serif; background-color: rgb(255, 255, 255);&quot;&gt;.&lt;/span&gt;&quot;&lt;/font&gt;" style="shape=umlFrame;whiteSpace=wrap;html=1;pointerEvents=0;recursiveResize=0;container=1;collapsible=0;width=200;height=50;align=center;" parent="1" vertex="1">
          <mxGeometry x="40" y="50" width="760" height="1000" as="geometry" />
        </mxCell>
        <mxCell id="xjDF9pEwEW9eb6jhkBWc-2" value="Starszy dokumentalista" style="shape=umlActor;verticalLabelPosition=bottom;verticalAlign=top;html=1;" parent="xjDF9pEwEW9eb6jhkBWc-3" vertex="1">
          <mxGeometry x="80" y="100" width="30" height="60" as="geometry" />
        </mxCell>
        <mxCell id="xjDF9pEwEW9eb6jhkBWc-1" value="Archiwista" style="shape=umlActor;verticalLabelPosition=bottom;verticalAlign=top;html=1;" parent="xjDF9pEwEW9eb6jhkBWc-3" vertex="1">
          <mxGeometry x="80" y="350" width="30" height="60" as="geometry" />
        </mxCell>
        <mxCell id="yINx0Oa0qj7sMehLbz9O-11" value="System zewnętrzny&lt;br&gt;System indeksujący" style="shape=umlActor;verticalLabelPosition=bottom;verticalAlign=top;html=1;" parent="xjDF9pEwEW9eb6jhkBWc-3" vertex="1">
          <mxGeometry x="670" y="515" width="30" height="60" as="geometry" />
        </mxCell>
        <mxCell id="yINx0Oa0qj7sMehLbz9O-12" value="&lt;font style=&quot;font-size: 12px;&quot;&gt;System&lt;font style=&quot;font-size: 12px;&quot;&gt; czasu&lt;/font&gt;&lt;/font&gt;&lt;div&gt;&lt;font style=&quot;font-size: 12px;&quot;&gt;&lt;font style=&quot;font-size: 12px;&quot;&gt;&quot;codziennie na koniec dnia&quot;&lt;/font&gt;&lt;/font&gt;&lt;/div&gt;" style="shape=umlActor;verticalLabelPosition=bottom;verticalAlign=top;html=1;" parent="xjDF9pEwEW9eb6jhkBWc-3" vertex="1">
          <mxGeometry x="670" y="860" width="30" height="60" as="geometry" />
        </mxCell>
        <mxCell id="yINx0Oa0qj7sMehLbz9O-18" value="Pracownik obsługi" style="shape=umlActor;verticalLabelPosition=bottom;verticalAlign=top;html=1;" parent="xjDF9pEwEW9eb6jhkBWc-3" vertex="1">
          <mxGeometry x="80" y="740" width="30" height="60" as="geometry" />
        </mxCell>
        <mxCell id="yINx0Oa0qj7sMehLbz9O-21" value="Goście" style="shape=umlActor;verticalLabelPosition=bottom;verticalAlign=top;html=1;" parent="xjDF9pEwEW9eb6jhkBWc-3" vertex="1">
          <mxGeometry x="660" y="350" width="30" height="60" as="geometry" />
        </mxCell>
        <mxCell id="yINx0Oa0qj7sMehLbz9O-26" value="" style="endArrow=block;endFill=0;endSize=12;html=1;rounded=0;entryX=0.5;entryY=0;entryDx=0;entryDy=0;entryPerimeter=0;" parent="xjDF9pEwEW9eb6jhkBWc-3" source="xjDF9pEwEW9eb6jhkBWc-2" target="xjDF9pEwEW9eb6jhkBWc-1" edge="1">
          <mxGeometry width="160" relative="1" as="geometry">
            <mxPoint x="84.5" y="430" as="sourcePoint" />
            <mxPoint x="84.5" y="350" as="targetPoint" />
            <Array as="points" />
          </mxGeometry>
        </mxCell>
        <mxCell id="yINx0Oa0qj7sMehLbz9O-8" value="" style="html=1;whiteSpace=wrap;" parent="xjDF9pEwEW9eb6jhkBWc-3" vertex="1">
          <mxGeometry x="177.5" y="70" width="430" height="880" as="geometry" />
        </mxCell>
        <mxCell id="t_vTnjnZ2baawU1hBgG_-2" value="Przeglądanie dokumentów archiwalnych" style="ellipse;whiteSpace=wrap;html=1;" parent="xjDF9pEwEW9eb6jhkBWc-3" vertex="1">
          <mxGeometry x="300" y="150" width="105" height="60" as="geometry" />
        </mxCell>
        <mxCell id="t_vTnjnZ2baawU1hBgG_-3" value="&lt;font style=&quot;font-size: 10px;&quot;&gt;Przegląd danych historycznych dostaw&lt;/font&gt;" style="ellipse;whiteSpace=wrap;html=1;" parent="xjDF9pEwEW9eb6jhkBWc-3" vertex="1">
          <mxGeometry x="447.5" y="90" width="105" height="60" as="geometry" />
        </mxCell>
        <mxCell id="t_vTnjnZ2baawU1hBgG_-4" value="&lt;font size=&quot;1&quot;&gt;Inwentarz archiwum&lt;/font&gt;&lt;br&gt;&lt;br&gt;&lt;span style=&quot;font-family: -webkit-standard; font-size: medium; text-align: start;&quot;&gt;&lt;/span&gt;" style="ellipse;whiteSpace=wrap;html=1;" parent="xjDF9pEwEW9eb6jhkBWc-3" vertex="1">
          <mxGeometry x="441.25" y="860" width="107.5" height="60" as="geometry" />
        </mxCell>
        <mxCell id="t_vTnjnZ2baawU1hBgG_-8" value="" style="endArrow=none;startArrow=none;endFill=0;startFill=0;endSize=8;html=1;verticalAlign=bottom;labelBackgroundColor=none;strokeWidth=2;rounded=0;exitX=1;exitY=0.5;exitDx=0;exitDy=0;" parent="xjDF9pEwEW9eb6jhkBWc-3" source="t_vTnjnZ2baawU1hBgG_-4" target="yINx0Oa0qj7sMehLbz9O-12" edge="1">
          <mxGeometry width="160" relative="1" as="geometry">
            <mxPoint x="270" y="370" as="sourcePoint" />
            <mxPoint x="430" y="370" as="targetPoint" />
          </mxGeometry>
        </mxCell>
        <mxCell id="yINx0Oa0qj7sMehLbz9O-36" value="Przypisanie do katalogu" style="ellipse;whiteSpace=wrap;html=1;" parent="xjDF9pEwEW9eb6jhkBWc-3" vertex="1">
          <mxGeometry x="310" y="330" width="105" height="60" as="geometry" />
        </mxCell>
        <mxCell id="t_vTnjnZ2baawU1hBgG_-11" value="" style="endArrow=none;startArrow=none;endFill=0;startFill=0;endSize=8;html=1;verticalAlign=bottom;labelBackgroundColor=none;strokeWidth=2;rounded=0;entryX=1;entryY=0.5;entryDx=0;entryDy=0;exitX=0.5;exitY=0.5;exitDx=0;exitDy=0;exitPerimeter=0;" parent="xjDF9pEwEW9eb6jhkBWc-3" source="yINx0Oa0qj7sMehLbz9O-21" target="t_vTnjnZ2baawU1hBgG_-2" edge="1">
          <mxGeometry width="160" relative="1" as="geometry">
            <mxPoint x="100" y="140" as="sourcePoint" />
            <mxPoint x="318" y="509" as="targetPoint" />
          </mxGeometry>
        </mxCell>
        <mxCell id="t_vTnjnZ2baawU1hBgG_-16" value="" style="endArrow=none;startArrow=none;endFill=0;startFill=0;endSize=8;html=1;verticalAlign=bottom;labelBackgroundColor=none;strokeWidth=2;rounded=0;entryX=0;entryY=0.5;entryDx=0;entryDy=0;exitX=0.5;exitY=0.5;exitDx=0;exitDy=0;exitPerimeter=0;" parent="xjDF9pEwEW9eb6jhkBWc-3" source="xjDF9pEwEW9eb6jhkBWc-2" target="t_vTnjnZ2baawU1hBgG_-2" edge="1">
          <mxGeometry width="160" relative="1" as="geometry">
            <mxPoint x="90" y="130" as="sourcePoint" />
            <mxPoint x="445" y="400" as="targetPoint" />
          </mxGeometry>
        </mxCell>
        <mxCell id="yINx0Oa0qj7sMehLbz9O-34" value="Wykonanie kopii dokumentu" style="ellipse;whiteSpace=wrap;html=1;" parent="xjDF9pEwEW9eb6jhkBWc-3" vertex="1">
          <mxGeometry x="310" y="710" width="105" height="60" as="geometry" />
        </mxCell>
        <mxCell id="yINx0Oa0qj7sMehLbz9O-35" value="Aktualizacja kalendarza produkcji" style="ellipse;whiteSpace=wrap;html=1;" parent="xjDF9pEwEW9eb6jhkBWc-3" vertex="1">
          <mxGeometry x="235" y="860" width="105" height="60" as="geometry" />
        </mxCell>
        <mxCell id="yINx0Oa0qj7sMehLbz9O-33" value="Utworzenie nowego katalogu" style="ellipse;whiteSpace=wrap;html=1;" parent="xjDF9pEwEW9eb6jhkBWc-3" vertex="1">
          <mxGeometry x="400" y="250" width="105" height="60" as="geometry" />
        </mxCell>
        <mxCell id="t_vTnjnZ2baawU1hBgG_-17" value="" style="endArrow=none;startArrow=none;endFill=0;startFill=0;endSize=8;html=1;verticalAlign=bottom;labelBackgroundColor=none;strokeWidth=2;rounded=0;entryX=0;entryY=0.5;entryDx=0;entryDy=0;exitX=0.5;exitY=0.5;exitDx=0;exitDy=0;exitPerimeter=0;" parent="xjDF9pEwEW9eb6jhkBWc-3" source="xjDF9pEwEW9eb6jhkBWc-1" target="yINx0Oa0qj7sMehLbz9O-33" edge="1">
          <mxGeometry width="160" relative="1" as="geometry">
            <mxPoint x="170" y="309" as="sourcePoint" />
            <mxPoint x="395" y="309" as="targetPoint" />
          </mxGeometry>
        </mxCell>
        <mxCell id="yINx0Oa0qj7sMehLbz9O-27" value="Sprawdzenie dostępności zasobów" style="ellipse;whiteSpace=wrap;html=1;" parent="xjDF9pEwEW9eb6jhkBWc-3" vertex="1">
          <mxGeometry x="180" y="680" width="105" height="60" as="geometry" />
        </mxCell>
        <mxCell id="yINx0Oa0qj7sMehLbz9O-32" value="Wprowadzenie nowego opracowania" style="ellipse;whiteSpace=wrap;html=1;" parent="xjDF9pEwEW9eb6jhkBWc-3" vertex="1">
          <mxGeometry x="190" y="480" width="105" height="60" as="geometry" />
        </mxCell>
        <mxCell id="yINx0Oa0qj7sMehLbz9O-38" value="Dodanie nowego dokumentu archiwalnego" style="ellipse;whiteSpace=wrap;html=1;" parent="xjDF9pEwEW9eb6jhkBWc-3" vertex="1">
          <mxGeometry x="400" y="410" width="105" height="60" as="geometry" />
        </mxCell>
        <mxCell id="yINx0Oa0qj7sMehLbz9O-39" value="&lt;span style=&quot;text-align: start;&quot;&gt;&lt;font style=&quot;font-size: 10px;&quot; face=&quot;Helvetica&quot;&gt;indeksowanie zawartości archiwum w celu usprawnienia wyszukiwania dokumentów archiwalnych&lt;/font&gt;&lt;/span&gt;&lt;span style=&quot;font-family: -webkit-standard; font-size: medium; text-align: start;&quot;&gt;&lt;/span&gt;" style="ellipse;whiteSpace=wrap;html=1;" parent="xjDF9pEwEW9eb6jhkBWc-3" vertex="1">
          <mxGeometry x="425" y="502.5" width="140" height="85" as="geometry" />
        </mxCell>
        <mxCell id="t_vTnjnZ2baawU1hBgG_-15" value="" style="endArrow=none;startArrow=none;endFill=0;startFill=0;endSize=8;html=1;verticalAlign=bottom;labelBackgroundColor=none;strokeWidth=2;rounded=0;entryX=0.5;entryY=0.5;entryDx=0;entryDy=0;entryPerimeter=0;exitX=1;exitY=0.5;exitDx=0;exitDy=0;" parent="xjDF9pEwEW9eb6jhkBWc-3" source="yINx0Oa0qj7sMehLbz9O-39" target="yINx0Oa0qj7sMehLbz9O-11" edge="1">
          <mxGeometry width="160" relative="1" as="geometry">
            <mxPoint x="475" y="290.5" as="sourcePoint" />
            <mxPoint x="700" y="290" as="targetPoint" />
          </mxGeometry>
        </mxCell>
        <mxCell id="yINx0Oa0qj7sMehLbz9O-31" value="&lt;font style=&quot;font-size: 10px;&quot;&gt;Przypisanie dokumentów źródłowych&lt;/font&gt;" style="ellipse;whiteSpace=wrap;html=1;" parent="xjDF9pEwEW9eb6jhkBWc-3" vertex="1">
          <mxGeometry x="220" y="600" width="105" height="60" as="geometry" />
        </mxCell>
        <mxCell id="t_vTnjnZ2baawU1hBgG_-21" value="" style="endArrow=none;startArrow=none;endFill=0;startFill=0;endSize=8;html=1;verticalAlign=bottom;labelBackgroundColor=none;strokeWidth=2;rounded=0;exitX=0.5;exitY=0.5;exitDx=0;exitDy=0;exitPerimeter=0;" parent="xjDF9pEwEW9eb6jhkBWc-3" source="xjDF9pEwEW9eb6jhkBWc-2" edge="1">
          <mxGeometry width="160" relative="1" as="geometry">
            <mxPoint x="110" y="120" as="sourcePoint" />
            <mxPoint x="450" y="120" as="targetPoint" />
          </mxGeometry>
        </mxCell>
        <mxCell id="t_vTnjnZ2baawU1hBgG_-22" value="" style="endArrow=none;startArrow=none;endFill=0;startFill=0;endSize=8;html=1;verticalAlign=bottom;labelBackgroundColor=none;strokeWidth=2;rounded=0;exitX=1;exitY=1;exitDx=0;exitDy=0;exitPerimeter=0;entryX=0;entryY=0.5;entryDx=0;entryDy=0;" parent="xjDF9pEwEW9eb6jhkBWc-3" source="xjDF9pEwEW9eb6jhkBWc-1" target="yINx0Oa0qj7sMehLbz9O-32" edge="1">
          <mxGeometry width="160" relative="1" as="geometry">
            <mxPoint x="95" y="590" as="sourcePoint" />
            <mxPoint x="435" y="545" as="targetPoint" />
          </mxGeometry>
        </mxCell>
        <mxCell id="t_vTnjnZ2baawU1hBgG_-23" value="" style="endArrow=none;startArrow=none;endFill=0;startFill=0;endSize=8;html=1;verticalAlign=bottom;labelBackgroundColor=none;strokeWidth=2;rounded=0;exitX=0.76;exitY=0.853;exitDx=0;exitDy=0;exitPerimeter=0;entryX=0;entryY=0;entryDx=0;entryDy=0;" parent="xjDF9pEwEW9eb6jhkBWc-3" source="xjDF9pEwEW9eb6jhkBWc-2" target="x9usF1vXFKsrdMA3hae5-8" edge="1">
          <mxGeometry width="160" relative="1" as="geometry">
            <mxPoint x="160" y="520" as="sourcePoint" />
            <mxPoint x="385" y="520" as="targetPoint" />
          </mxGeometry>
        </mxCell>
        <mxCell id="t_vTnjnZ2baawU1hBgG_-24" value="" style="endArrow=none;startArrow=none;endFill=0;startFill=0;endSize=8;html=1;verticalAlign=bottom;labelBackgroundColor=none;strokeWidth=2;rounded=0;entryX=0;entryY=0.5;entryDx=0;entryDy=0;exitX=0.5;exitY=0.5;exitDx=0;exitDy=0;exitPerimeter=0;" parent="xjDF9pEwEW9eb6jhkBWc-3" source="xjDF9pEwEW9eb6jhkBWc-1" target="yINx0Oa0qj7sMehLbz9O-38" edge="1">
          <mxGeometry width="160" relative="1" as="geometry">
            <mxPoint x="100" y="310" as="sourcePoint" />
            <mxPoint x="365" y="320" as="targetPoint" />
          </mxGeometry>
        </mxCell>
        <mxCell id="t_vTnjnZ2baawU1hBgG_-26" value="" style="endArrow=none;startArrow=none;endFill=0;startFill=0;endSize=8;html=1;verticalAlign=bottom;labelBackgroundColor=none;strokeWidth=2;rounded=0;exitX=0.5;exitY=0.5;exitDx=0;exitDy=0;exitPerimeter=0;entryX=0;entryY=0.5;entryDx=0;entryDy=0;" parent="xjDF9pEwEW9eb6jhkBWc-3" source="yINx0Oa0qj7sMehLbz9O-18" target="yINx0Oa0qj7sMehLbz9O-35" edge="1">
          <mxGeometry width="160" relative="1" as="geometry">
            <mxPoint x="85" y="740" as="sourcePoint" />
            <mxPoint x="235" y="760" as="targetPoint" />
          </mxGeometry>
        </mxCell>
        <mxCell id="t_vTnjnZ2baawU1hBgG_-27" value="" style="endArrow=none;startArrow=none;endFill=0;startFill=0;endSize=8;html=1;verticalAlign=bottom;labelBackgroundColor=none;strokeWidth=2;rounded=0;entryX=0;entryY=0.5;entryDx=0;entryDy=0;exitX=0.5;exitY=0.5;exitDx=0;exitDy=0;exitPerimeter=0;" parent="xjDF9pEwEW9eb6jhkBWc-3" source="yINx0Oa0qj7sMehLbz9O-18" target="yINx0Oa0qj7sMehLbz9O-34" edge="1">
          <mxGeometry width="160" relative="1" as="geometry">
            <mxPoint x="90" y="650" as="sourcePoint" />
            <mxPoint x="260" y="700" as="targetPoint" />
          </mxGeometry>
        </mxCell>
        <mxCell id="t_vTnjnZ2baawU1hBgG_-28" value="" style="endArrow=none;startArrow=none;endFill=0;startFill=0;endSize=8;html=1;verticalAlign=bottom;labelBackgroundColor=none;strokeWidth=2;rounded=0;entryX=0;entryY=1;entryDx=0;entryDy=0;exitX=0.5;exitY=0.5;exitDx=0;exitDy=0;exitPerimeter=0;" parent="xjDF9pEwEW9eb6jhkBWc-3" source="yINx0Oa0qj7sMehLbz9O-18" target="t_vTnjnZ2baawU1hBgG_-2" edge="1">
          <mxGeometry width="160" relative="1" as="geometry">
            <mxPoint x="90" y="680" as="sourcePoint" />
            <mxPoint x="270" y="700" as="targetPoint" />
            <Array as="points" />
          </mxGeometry>
        </mxCell>
        <mxCell id="t_vTnjnZ2baawU1hBgG_-29" value="&amp;lt;&amp;lt;include&amp;gt;&amp;gt;" style="html=1;verticalAlign=bottom;labelBackgroundColor=none;endArrow=open;endFill=0;dashed=1;rounded=0;exitX=1;exitY=0.5;exitDx=0;exitDy=0;entryX=0;entryY=0.5;entryDx=0;entryDy=0;" parent="xjDF9pEwEW9eb6jhkBWc-3" source="yINx0Oa0qj7sMehLbz9O-32" target="yINx0Oa0qj7sMehLbz9O-31" edge="1">
          <mxGeometry x="-0.161" y="37" width="160" relative="1" as="geometry">
            <mxPoint x="270" y="290" as="sourcePoint" />
            <mxPoint x="430" y="290" as="targetPoint" />
            <mxPoint y="1" as="offset" />
          </mxGeometry>
        </mxCell>
        <mxCell id="t_vTnjnZ2baawU1hBgG_-31" value="" style="endArrow=none;startArrow=none;endFill=0;startFill=0;endSize=8;html=1;verticalAlign=bottom;labelBackgroundColor=none;strokeWidth=2;rounded=0;entryX=0.5;entryY=0.5;entryDx=0;entryDy=0;entryPerimeter=0;exitX=0;exitY=0.5;exitDx=0;exitDy=0;" parent="xjDF9pEwEW9eb6jhkBWc-3" source="yINx0Oa0qj7sMehLbz9O-36" target="xjDF9pEwEW9eb6jhkBWc-1" edge="1">
          <mxGeometry width="160" relative="1" as="geometry">
            <mxPoint x="705" y="180" as="sourcePoint" />
            <mxPoint x="464" y="273" as="targetPoint" />
          </mxGeometry>
        </mxCell>
        <mxCell id="t_vTnjnZ2baawU1hBgG_-34" value="&amp;lt;&amp;lt;include&amp;gt;&amp;gt;" style="html=1;verticalAlign=bottom;labelBackgroundColor=none;endArrow=open;endFill=0;dashed=1;rounded=0;entryX=0.644;entryY=0.964;entryDx=0;entryDy=0;exitX=0.5;exitY=0;exitDx=0;exitDy=0;entryPerimeter=0;" parent="xjDF9pEwEW9eb6jhkBWc-3" source="yINx0Oa0qj7sMehLbz9O-38" target="yINx0Oa0qj7sMehLbz9O-36" edge="1">
          <mxGeometry x="1" y="28" width="160" relative="1" as="geometry">
            <mxPoint x="290" y="330" as="sourcePoint" />
            <mxPoint x="450" y="330" as="targetPoint" />
            <mxPoint x="-1" y="-1" as="offset" />
          </mxGeometry>
        </mxCell>
        <mxCell id="t_vTnjnZ2baawU1hBgG_-35" style="edgeStyle=orthogonalEdgeStyle;rounded=0;orthogonalLoop=1;jettySize=auto;html=1;exitX=0.5;exitY=1;exitDx=0;exitDy=0;" parent="xjDF9pEwEW9eb6jhkBWc-3" source="yINx0Oa0qj7sMehLbz9O-8" target="yINx0Oa0qj7sMehLbz9O-8" edge="1">
          <mxGeometry relative="1" as="geometry" />
        </mxCell>
        <mxCell id="t_vTnjnZ2baawU1hBgG_-36" value="&amp;lt;&amp;lt;exclude&amp;gt;&amp;gt;" style="html=1;verticalAlign=bottom;labelBackgroundColor=none;endArrow=open;endFill=0;dashed=1;rounded=0;entryX=0.5;entryY=1;entryDx=0;entryDy=0;exitX=0.5;exitY=0;exitDx=0;exitDy=0;" parent="xjDF9pEwEW9eb6jhkBWc-3" source="yINx0Oa0qj7sMehLbz9O-34" target="t_vTnjnZ2baawU1hBgG_-2" edge="1">
          <mxGeometry x="0.1429" y="33" width="160" relative="1" as="geometry">
            <mxPoint x="313.3341725411799" y="320.00489425876276" as="sourcePoint" />
            <mxPoint x="285" y="820.02" as="targetPoint" />
            <mxPoint as="offset" />
          </mxGeometry>
        </mxCell>
        <mxCell id="x9usF1vXFKsrdMA3hae5-7" value="&lt;font style=&quot;font-size: 12px;&quot;&gt;System&lt;font style=&quot;font-size: 12px;&quot;&gt; czasu&lt;/font&gt;&lt;/font&gt;&lt;div&gt;&lt;font style=&quot;font-size: 12px;&quot;&gt;&lt;font style=&quot;font-size: 12px;&quot;&gt;&quot;raz na kwartał&quot;&lt;/font&gt;&lt;/font&gt;&lt;/div&gt;" style="shape=umlActor;verticalLabelPosition=bottom;verticalAlign=top;html=1;" vertex="1" parent="xjDF9pEwEW9eb6jhkBWc-3">
          <mxGeometry x="670" y="750" width="30" height="60" as="geometry" />
        </mxCell>
        <mxCell id="x9usF1vXFKsrdMA3hae5-8" value="&lt;font size=&quot;1&quot;&gt;Generowanie raportu ze statystykami&lt;/font&gt;&lt;span style=&quot;font-family: -webkit-standard; font-size: medium; text-align: start;&quot;&gt;&lt;/span&gt;" style="ellipse;whiteSpace=wrap;html=1;" vertex="1" parent="xjDF9pEwEW9eb6jhkBWc-3">
          <mxGeometry x="440" y="750" width="112.5" height="60" as="geometry" />
        </mxCell>
        <mxCell id="x9usF1vXFKsrdMA3hae5-10" value="" style="endArrow=none;startArrow=none;endFill=0;startFill=0;endSize=8;html=1;verticalAlign=bottom;labelBackgroundColor=none;strokeWidth=2;rounded=0;exitX=1;exitY=0.5;exitDx=0;exitDy=0;" edge="1" parent="xjDF9pEwEW9eb6jhkBWc-3" source="x9usF1vXFKsrdMA3hae5-8" target="x9usF1vXFKsrdMA3hae5-7">
          <mxGeometry width="160" relative="1" as="geometry">
            <mxPoint x="547.5" y="779.66" as="sourcePoint" />
            <mxPoint x="668.5" y="779.66" as="targetPoint" />
          </mxGeometry>
        </mxCell>
        <mxCell id="x9usF1vXFKsrdMA3hae5-11" value="&amp;lt;&amp;lt;include&amp;gt;&amp;gt;" style="html=1;verticalAlign=bottom;labelBackgroundColor=none;endArrow=open;endFill=0;dashed=1;rounded=0;exitX=0;exitY=1;exitDx=0;exitDy=0;" edge="1" parent="xjDF9pEwEW9eb6jhkBWc-3" source="yINx0Oa0qj7sMehLbz9O-33" target="yINx0Oa0qj7sMehLbz9O-36">
          <mxGeometry x="0.4409" y="-47" width="160" relative="1" as="geometry">
            <mxPoint x="565" y="392" as="sourcePoint" />
            <mxPoint x="525" y="330" as="targetPoint" />
            <mxPoint as="offset" />
          </mxGeometry>
        </mxCell>
        <mxCell id="x9usF1vXFKsrdMA3hae5-13" value="&amp;lt;&amp;lt;exclude&amp;gt;&amp;gt;" style="html=1;verticalAlign=bottom;labelBackgroundColor=none;endArrow=open;endFill=0;dashed=1;rounded=0;entryX=0.5;entryY=0;entryDx=0;entryDy=0;" edge="1" parent="xjDF9pEwEW9eb6jhkBWc-3" source="yINx0Oa0qj7sMehLbz9O-33" target="yINx0Oa0qj7sMehLbz9O-38">
          <mxGeometry x="0.1162" y="42" width="160" relative="1" as="geometry">
            <mxPoint x="480" y="382" as="sourcePoint" />
            <mxPoint x="440" y="320" as="targetPoint" />
            <mxPoint as="offset" />
          </mxGeometry>
        </mxCell>
        <mxCell id="x9usF1vXFKsrdMA3hae5-60" value="" style="endArrow=none;startArrow=none;endFill=0;startFill=0;endSize=8;html=1;verticalAlign=bottom;labelBackgroundColor=none;strokeWidth=2;rounded=0;entryX=0;entryY=1;entryDx=0;entryDy=0;" edge="1" parent="xjDF9pEwEW9eb6jhkBWc-3" source="xjDF9pEwEW9eb6jhkBWc-1" target="t_vTnjnZ2baawU1hBgG_-2">
          <mxGeometry width="160" relative="1" as="geometry">
            <mxPoint x="105" y="140" as="sourcePoint" />
            <mxPoint x="460" y="130" as="targetPoint" />
          </mxGeometry>
        </mxCell>
        <mxCell id="yINx0Oa0qj7sMehLbz9O-1" value="&lt;table style=&quot;caret-color: rgb(0, 0, 0); color: rgb(0, 0, 0); font-style: normal; font-variant-caps: normal; font-weight: 400; letter-spacing: normal; text-transform: none; word-spacing: 0px; -webkit-text-stroke-width: 0px; text-decoration: none; border-collapse: collapse;&quot; cellpadding=&quot;0&quot; cellspacing=&quot;0&quot; border=&quot;0&quot; class=&quot;MsoNormalTable&quot;&gt;&lt;tbody&gt;&lt;tr&gt;&lt;td style=&quot;width: 99pt; border: 1pt solid black; background: rgb(217, 217, 217); padding: 0cm 5.4pt;&quot; valign=&quot;top&quot; width=&quot;132&quot;&gt;&lt;p style=&quot;margin: 0cm; font-size: 12pt; font-family: Calibri, sans-serif; text-align: justify;&quot; class=&quot;MsoNormal&quot;&gt;&lt;span style=&quot;font-family: Poppins; color: black;&quot;&gt;Nazwa przypadku użycia&lt;/span&gt;&lt;span style=&quot;font-size: 10pt; font-family: Poppins; color: rgb(100, 108, 154);&quot;&gt;&lt;/span&gt;&lt;/p&gt;&lt;/td&gt;&lt;td style=&quot;text-align: center; width: 354pt; border-width: 1pt 1pt 1pt medium; border-style: solid solid solid none; border-color: black black black currentcolor; border-image: none; padding: 0cm 5.4pt;&quot; valign=&quot;top&quot; width=&quot;472&quot;&gt;&lt;font style=&quot;font-size: 15px;&quot;&gt;Rozpatrzenie zasadności reklamacji&lt;/font&gt;&lt;br&gt;&lt;/td&gt;&lt;/tr&gt;&lt;tr&gt;&lt;td style=&quot;width: 99pt; border-width: medium 1pt 1pt; border-style: none solid solid; border-color: currentcolor black black; border-image: none; background: rgb(217, 217, 217); padding: 0cm 5.4pt;&quot; valign=&quot;top&quot; width=&quot;132&quot;&gt;&lt;p style=&quot;margin: 0cm; font-size: 12pt; font-family: Calibri, sans-serif; text-align: justify;&quot; class=&quot;MsoNormal&quot;&gt;&lt;span style=&quot;font-family: Poppins; color: black;&quot;&gt;Warunek początkowy&lt;/span&gt;&lt;span style=&quot;font-size: 10pt; font-family: Poppins; color: rgb(100, 108, 154);&quot;&gt;&lt;/span&gt;&lt;/p&gt;&lt;/td&gt;&lt;td style=&quot;text-align: center; width: 354pt; border-width: medium 1pt 1pt medium; border-style: none solid solid none; border-color: currentcolor black black currentcolor; padding: 0cm 5.4pt;&quot; valign=&quot;top&quot; width=&quot;472&quot;&gt;&lt;font size=&quot;3&quot; face=&quot;Poppins&quot;&gt;Złożenie reklamacji przez aktora &lt;i&gt;Klient&lt;/i&gt;&lt;/font&gt;&lt;/td&gt;&lt;/tr&gt;&lt;tr&gt;&lt;td style=&quot;width: 99pt; border-width: medium 1pt 1pt; border-style: none solid solid; border-color: currentcolor black black; border-image: none; background: rgb(217, 217, 217); padding: 0cm 5.4pt;&quot; valign=&quot;top&quot; width=&quot;132&quot;&gt;&lt;p style=&quot;margin: 0cm; font-size: 12pt; font-family: Calibri, sans-serif; text-align: justify;&quot; class=&quot;MsoNormal&quot;&gt;&lt;span style=&quot;font-family: Poppins; color: black;&quot;&gt;Główny przepływ zdarzeń&lt;/span&gt;&lt;span style=&quot;font-size: 10pt; font-family: Poppins; color: rgb(100, 108, 154);&quot;&gt;&lt;/span&gt;&lt;/p&gt;&lt;/td&gt;&lt;td style=&quot;width: 354pt; border-width: medium 1pt 1pt medium; border-style: none solid solid none; border-color: currentcolor black black currentcolor; padding: 0cm 5.4pt;&quot; valign=&quot;top&quot; width=&quot;472&quot;&gt;&lt;ol&gt;&lt;li&gt;&lt;font size=&quot;3&quot; face=&quot;Poppins&quot;&gt;Aktor &lt;i&gt;Sprzedawca&lt;/i&gt;&amp;nbsp;uruchamia przypadek użycia&lt;/font&gt;&lt;/li&gt;&lt;li&gt;&lt;font size=&quot;3&quot; face=&quot;Poppins&quot;&gt;System wyświetla zamówienia, których dotyczy reklamacja.&lt;/font&gt;&lt;/li&gt;&lt;li&gt;&lt;font size=&quot;3&quot; face=&quot;Poppins&quot;&gt;Aktor &lt;i&gt;Klient&lt;/i&gt; dostarcza dokumenty dot. faktycznego terminu dostawy. Aktor &lt;i&gt;Sprzedawca&lt;/i&gt; weryfikuje legalność danych i wprowadza do systemu dane dostarczone przez aktora &lt;i&gt;Klient&lt;/i&gt;.&lt;/font&gt;&lt;/li&gt;&lt;li&gt;&lt;font size=&quot;3&quot; face=&quot;Poppins&quot;&gt;System weryfikuje wprowadzone dane porównując je z danymi zamówienia.&lt;/font&gt;&lt;/li&gt;&lt;li&gt;&lt;font size=&quot;3&quot; face=&quot;Poppins&quot;&gt;System decyduje o zasadności reklamacji.&lt;/font&gt;&lt;/li&gt;&lt;li&gt;&lt;font size=&quot;3&quot; face=&quot;Poppins&quot;&gt;System przydziela rekompensatę zgodnie z umową, bądź odrzuca reklamację.&lt;/font&gt;&lt;/li&gt;&lt;/ol&gt;&lt;/td&gt;&lt;/tr&gt;&lt;tr&gt;&lt;td style=&quot;width: 99pt; border-width: medium 1pt 1pt; border-style: none solid solid; border-color: currentcolor black black; border-image: none; background: rgb(217, 217, 217); padding: 0cm 5.4pt;&quot; valign=&quot;top&quot; width=&quot;132&quot;&gt;&lt;p style=&quot;margin: 0cm; font-size: 12pt; font-family: Calibri, sans-serif; text-align: justify;&quot; class=&quot;MsoNormal&quot;&gt;&lt;span style=&quot;font-family: Poppins; color: black;&quot;&gt;Alternatywne przepływy zdarzeń&lt;/span&gt;&lt;span style=&quot;font-size: 10pt; font-family: Poppins; color: rgb(100, 108, 154);&quot;&gt;&lt;/span&gt;&lt;/p&gt;&lt;/td&gt;&lt;td style=&quot;width: 354pt; border-width: medium 1pt 1pt medium; border-style: none solid solid none; border-color: currentcolor black black currentcolor; padding: 0cm 5.4pt;&quot; valign=&quot;top&quot; width=&quot;472&quot;&gt;&lt;div&gt;&lt;font size=&quot;3&quot; face=&quot;Poppins&quot;&gt;&lt;span style=&quot;white-space: pre;&quot;&gt;&lt;font color=&quot;#646c9a&quot;&gt; &lt;/font&gt;2a. Brak w systemie zamówień, które reklamuje aktor &lt;i&gt;Klient&lt;/i&gt;.&lt;/span&gt;&lt;br&gt;&lt;/font&gt;&lt;/div&gt;&lt;div&gt;&lt;font size=&quot;3&quot; face=&quot;Poppins&quot;&gt;&lt;span style=&quot;white-space: pre;&quot;&gt;&lt;span style=&quot;white-space: pre;&quot;&gt; 3a. Brak legalnych dokumentów potwierdzających opóźnioną dostawę.&lt;/span&gt;&lt;font color=&quot;#646c9a&quot;&gt;&lt;br&gt;&lt;/font&gt;&lt;/span&gt;&lt;/font&gt;&lt;/div&gt;&lt;/td&gt;&lt;/tr&gt;&lt;tr&gt;&lt;td style=&quot;width: 99pt; border-width: medium 1pt 1pt; border-style: none solid solid; border-color: currentcolor black black; border-image: none; background: rgb(217, 217, 217); padding: 0cm 5.4pt;&quot; valign=&quot;top&quot; width=&quot;132&quot;&gt;&lt;p style=&quot;margin: 0cm; font-size: 12pt; font-family: Calibri, sans-serif; text-align: justify;&quot; class=&quot;MsoNormal&quot;&gt;&lt;span style=&quot;font-family: Poppins; color: black;&quot;&gt;Zakończenie&lt;/span&gt;&lt;span style=&quot;font-size: 10pt; font-family: Poppins; color: rgb(100, 108, 154);&quot;&gt;&lt;/span&gt;&lt;/p&gt;&lt;/td&gt;&lt;td style=&quot;width: 354pt; border-width: medium 1pt 1pt medium; border-style: none solid solid none; border-color: currentcolor black black currentcolor; padding: 0cm 5.4pt;&quot; valign=&quot;top&quot; width=&quot;472&quot;&gt;&lt;p style=&quot;text-align: center; margin: 0cm; font-size: 12pt; font-family: Calibri, sans-serif;&quot; class=&quot;MsoNormal&quot;&gt;&lt;span style=&quot;font-family: Poppins;&quot;&gt;W dowolnym momencie&lt;/span&gt;&lt;span style=&quot;font-size: 10pt; font-family: Poppins; color: rgb(100, 108, 154);&quot;&gt;&lt;/span&gt;&lt;/p&gt;&lt;/td&gt;&lt;/tr&gt;&lt;tr&gt;&lt;td style=&quot;width: 99pt; border-width: medium 1pt 1pt; border-style: none solid solid; border-color: currentcolor black black; border-image: none; background: rgb(217, 217, 217); padding: 0cm 5.4pt;&quot; valign=&quot;top&quot; width=&quot;132&quot;&gt;&lt;p style=&quot;margin: 0cm; font-size: 12pt; font-family: Calibri, sans-serif; text-align: justify;&quot; class=&quot;MsoNormal&quot;&gt;&lt;span style=&quot;font-family: Poppins; color: black;&quot;&gt;Warunek końcowy&lt;/span&gt;&lt;span style=&quot;font-size: 10pt; font-family: Poppins; color: rgb(100, 108, 154);&quot;&gt;&lt;/span&gt;&lt;/p&gt;&lt;/td&gt;&lt;td style=&quot;text-align: justify; width: 354pt; border-width: medium 1pt 1pt medium; border-style: none solid solid none; border-color: currentcolor black black currentcolor; padding: 0cm 5.4pt;&quot; valign=&quot;top&quot; width=&quot;472&quot;&gt;Zostaje zarejestrowany status reklamacji:&lt;br&gt;&lt;table&gt;&lt;tbody&gt;&lt;tr&gt;&lt;td&gt;Wynik weryfikacji:&lt;/td&gt;&lt;td&gt;Status reklamacji:&lt;/td&gt;&lt;/tr&gt;&lt;tr&gt;&lt;td&gt;Sukces&lt;/td&gt;&lt;td&gt;Reklamacja przyznana&lt;/td&gt;&lt;/tr&gt;&lt;tr&gt;&lt;td&gt;Brak sukcesu&lt;/td&gt;&lt;td&gt;Reklamacja odrzucona&lt;/td&gt;&lt;/tr&gt;&lt;/tbody&gt;&lt;/table&gt;&lt;br&gt;&lt;/td&gt;&lt;/tr&gt;&lt;/tbody&gt;&lt;/table&gt;" style="text;whiteSpace=wrap;html=1;" parent="1" vertex="1">
          <mxGeometry x="130" y="1200" width="610" height="500" as="geometry" />
        </mxCell>
      </root>
    </mxGraphModel>
  </diagram>
</mxfile>
